<?xml version="1.0" encoding="UTF-8" standalone="no"?>
<!-- Created with Inkscape (http://www.inkscape.org/) -->

<svg
   width="175.04282mm"
   height="201.34924mm"
   viewBox="0 0 175.04282 201.34924"
   version="1.1"
   id="svg5"
   xml:space="preserve"
   inkscape:version="1.2.1 (0f2f062aeb, 2022-09-21, custom)"
   sodipodi:docname="episcience.svg"
   xmlns:inkscape="http://www.inkscape.org/namespaces/inkscape"
   xmlns:sodipodi="http://sodipodi.sourceforge.net/DTD/sodipodi-0.dtd"
   xmlns="http://www.w3.org/2000/svg"
   xmlns:svg="http://www.w3.org/2000/svg"><sodipodi:namedview
     id="namedview7"
     pagecolor="#ffffff"
     bordercolor="#666666"
     borderopacity="1.0"
     inkscape:showpageshadow="2"
     inkscape:pageopacity="0.0"
     inkscape:pagecheckerboard="0"
     inkscape:deskcolor="#d1d1d1"
     inkscape:document-units="mm"
     showgrid="false"
     inkscape:zoom="0.45522587"
     inkscape:cx="-1361.9613"
     inkscape:cy="-1.0983559"
     inkscape:window-width="1880"
     inkscape:window-height="1136"
     inkscape:window-x="40"
     inkscape:window-y="27"
     inkscape:window-maximized="1"
     inkscape:current-layer="layer1" /><defs
     id="defs2" /><g
     inkscape:label="Layer 1"
     inkscape:groupmode="layer"
     id="layer1"
     transform="translate(-17.086729,-24.890823)"><path
       sodipodi:type="star"
       style="fill:#ffffff;stroke:#000000;stroke-width:3;stroke-linejoin:round;stroke-miterlimit:4;stroke-dasharray:none;stroke-opacity:1"
       id="path891-3"
       inkscape:flatsided="true"
       sodipodi:sides="6"
       sodipodi:cx="-48.832626"
       sodipodi:cy="-39.528706"
       sodipodi:r1="75.471756"
       sodipodi:r2="38.159691"
       sodipodi:arg1="0.52214479"
       sodipodi:arg2="1.0457436"
       inkscape:rounded="0"
       inkscape:randomized="0"
       d="m 16.58263,-1.8879006 -65.305522,37.8308716 -65.415258,-37.6408054 -0.10973,-75.4716766 65.305519,-37.830869 65.415256,37.640803 z"
       transform="matrix(1.3079441,0,0,1.3079441,168.47849,177.26678)"
       inkscape:transform-center-x="78.735296"
       inkscape:transform-center-y="-59.091363"
       inkscape:export-filename="/home/catherine/Documents/epicentre/covid_herat/www/path891.png"
       inkscape:export-xdpi="200"
       inkscape:export-ydpi="200" /><g
       fill="#d2d2d2"
       id="g5249"
       transform="matrix(0.14372948,0,0,0.17463129,18.586433,37.983855)"
       style="fill:#305699;fill-opacity:1"><path
         d="m 1149,704.9 c 0,6.9453 -25.469,12.578 -56.883,12.578 -31.414,0 -56.879,-5.6328 -56.879,-12.578 0,-6.9453 25.465,-12.574 56.879,-12.574 31.414,0 56.883,5.6289 56.883,12.574"
         id="path5241"
         style="fill:#305699;fill-opacity:1" /><path
         d="m 222.84,740.53 c 0,7.0781 -31.57,12.816 -70.512,12.816 -38.942,0 -70.512,-5.7383 -70.512,-12.816 0,-7.0777 31.57,-12.816 70.512,-12.816 38.942,0 70.512,5.7383 70.512,12.816"
         id="path5243"
         style="fill:#305699;fill-opacity:1" /><path
         d="m 1051.7,752.39 c 0,6.5508 -20.227,11.855 -45.18,11.855 -24.953,0 -45.18,-5.3047 -45.18,-11.855 0,-6.5469 20.227,-11.855 45.18,-11.855 24.953,0 45.18,5.3086 45.18,11.855"
         id="path5245"
         style="fill:#305699;fill-opacity:1" /><path
         d="m 1027,607 c 38.891,4.1406 82.141,21 65.062,30 -17.062,9 -147.07,26.578 -141.07,37.789 6,11.207 30.938,17.207 4.0781,26.773 -26.855,9.5625 -140.07,3.3828 -183.09,15.91 -42.996,12.527 -63.191,28.691 -141,25.234 -77.809,-3.457 -116.99,-13.992 -169.99,-11.426 -52.988,2.582 -141.34,8.8711 -198.67,-23.207 -39.48,-18.07 -171.24,-3.4922 -200.79,-33.285 0,0 -9.6953,-13.188 64.379,-23.988 74.074,-10.801 0.0117,-33.18 78.109,-43.668 78.098,-10.488 238.12,-10.164 302.06,-26.125 0,0 61.199,-14.977 210.55,0 149.37,15 169.36,10.992 310.36,25.992 z"
         id="path5247"
         style="fill:#305699;fill-opacity:1" /></g><g
       id="g8783"
       transform="matrix(1.0069956,0,0,1.0069956,61.730856,62.607006)"
       style="fill:#333333"><path
         d="m 48.437865,49.875103 c -22.696099,0 -41.4815106,-4.24 -48.3079146,-10.286 v 18.013 c 0,7.243 22.1218116,13.363 48.3079146,13.363 26.186103,0 48.307915,-6.12 48.307915,-13.363 v -18.013 c -6.82502,6.046 -25.6132,10.286 -48.307915,10.286 z"
         id="path8765"
         style="fill:#333333;stroke-width:1.17636" /><path
         d="m 96.74578,62.680103 c -6.82502,6.046 -25.6132,10.285 -48.307915,10.285 -22.696099,0 -41.4815106,-4.239 -48.3079146,-10.285 v 18.013 c 0,7.244 22.1218116,13.364 48.3079146,13.364 26.186103,0 48.307915,-6.12 48.307915,-13.364 z"
         id="path8767"
         style="fill:#333333;stroke-width:1.17636" /><path
         d="m 48.437865,-1.9428966 c -26.186103,0 -48.3079146,6.12 -48.3079146,13.3629996 0,7.244 22.1218116,13.364 48.3079146,13.364 26.186103,0 48.307915,-6.12 48.307915,-13.364 0,-7.2429996 -22.121812,-13.3629996 -48.307915,-13.3629996 z"
         id="path8769"
         style="fill:#333333;stroke-width:1.17636" /><path
         d="m 48.437865,26.785103 c -22.696099,0 -41.4815106,-4.24 -48.3079146,-10.286 v 18.013 c 0,7.244 22.1218116,13.364 48.3079146,13.364 26.186103,0 48.307915,-6.12 48.307915,-13.364 v -18.014 c -6.82502,6.046 -25.6132,10.287 -48.307915,10.287 z"
         id="path8771"
         style="fill:#333333;stroke-width:1.17636" /></g><g
       id="g11388"
       transform="translate(-0.85097765,-3.2789915)"><rect
         style="fill:#ffffff;fill-opacity:1;stroke:none;stroke-width:1.11568;stroke-linecap:round;stroke-linejoin:round"
         id="rect7231"
         width="48.805298"
         height="5.0296359"
         x="46.04314"
         y="117.93925" /><path
         style="fill:#ffffff;stroke:#000000;stroke-width:0.234464px;stroke-linecap:butt;stroke-linejoin:miter;stroke-opacity:1"
         d="m 46.705684,182.57644 2.239393,-57.98454 8.564287,0.0323 0.104321,6.39797 0.0033,1.30715 0.982598,0.18756 20.969129,-0.12455 c -0.448955,-0.67217 3.767239,-0.82214 3.767239,-0.82214 l 0.07733,-7.3709 c 2.886935,0.0199 9.178007,0.0165 9.178007,0.0165 l 10.382892,53.29744 -8.342664,0.43109 0.168683,5.7533 -9.749747,-0.21475 -4.051092,-8.9579 -22.407667,0.98829 -2.746723,8.20207 -8.414676,0.35086"
         id="path7549"
         sodipodi:nodetypes="cccccccccccccccccc" /><path
         style="fill:#cccccc;stroke:none;stroke-width:0.264583px;stroke-linecap:butt;stroke-linejoin:miter;stroke-opacity:1"
         d="m 57.050709,160.38048 13.307205,-24.22296 13.71409,24.13504 z"
         id="path11359" /><g
         fill="#d2d2d2"
         id="g298"
         transform="matrix(0.06150963,0,0,0.06150963,37.016776,113.56152)"
         style="fill:#1a1a1a"><path
           d="m 555.30447,362.07979 c -2.53855,-3.9544 -6.91607,-6.34364 -11.61423,-6.34364 -4.69814,0 -9.0756,2.38924 -11.61421,6.34364 L 319.69842,747.01421 c -2.26756,4.10929 -2.1957,9.11171 0.1908,13.15467 2.38649,4.04288 6.72805,6.52622 11.42379,6.52897 h 424.75522 c 4.69553,-0.003 9.03738,-2.48602 11.42379,-6.52897 2.38649,-4.0429 2.45841,-9.04517 0.1908,-13.15467 z M 353.80059,740.14733 543.6945,395.9611 733.58839,740.14733 Z"
           id="path290"
           style="fill:#cccccc;fill-opacity:1;stroke-width:0.707925" /><path
           d="m 504.06441,486.22576 c -2.74391,3.06321 -4.05109,7.14738 -3.59933,11.2344 l 14.45744,130.11695 c 0.39155,3.53902 2.07223,6.80702 4.72577,9.18028 2.65053,2.37341 6.08415,3.68661 9.64446,3.68661 h 28.91488 c 3.56015,0 6.99378,-1.3132 9.64446,-3.68661 2.65354,-2.37341 4.33422,-5.64141 4.72577,-9.18028 L 587.0353,497.46016 c 0.4518,-4.08725 -0.85542,-8.17173 -3.59932,-11.2344 -2.7409,-3.0632 -6.65945,-4.81313 -10.77099,-4.81313 h -57.82975 c -4.11131,0 -8.02986,1.74993 -10.77099,4.81313 z m 52.45004,24.1019 -11.24673,101.20207 h -2.96381 L 531.05718,510.32766 Z"
           id="path292"
           style="fill:#305699;fill-opacity:1;stroke-width:0.771063" /><path
           d="m 543.75104,654.90359 c -11.50272,0 -22.53587,4.56917 -30.66751,12.70481 -8.13549,8.13241 -12.70481,19.16478 -12.70481,30.66751 0,11.50272 4.56917,22.53587 12.70481,30.6675 8.13241,8.13549 19.16479,12.70481 30.66751,12.70481 11.50272,0 22.53587,-4.56916 30.6675,-12.70481 8.13549,-8.1324 12.70481,-19.16478 12.70481,-30.6675 0,-11.50273 -4.56916,-22.53587 -12.70481,-30.66751 -8.1324,-8.13549 -19.16478,-12.70481 -30.6675,-12.70481 z m 0,57.82976 c -3.83427,0 -7.51185,-1.52409 -10.22276,-4.23484 -2.71075,-2.71075 -4.23483,-6.38841 -4.23483,-10.22276 0,-3.83434 1.52408,-7.51185 4.23483,-10.22275 2.71075,-2.71075 6.38841,-4.23484 10.22276,-4.23484 3.83434,0 7.51185,1.52409 10.22276,4.23484 2.71075,2.71075 4.23483,6.38841 4.23483,10.22275 0,3.83435 -1.52408,7.51186 -4.23483,10.22276 -2.71075,2.71075 -6.38842,4.23484 -10.22276,4.23484 z"
           id="path294"
           style="fill:#305699;fill-opacity:1;stroke-width:0.771063" /><path
           d="m 922.69,187.5 h 33.562 c 4.9727,0 9.7422,-1.9766 13.258,-5.4922 3.5156,-3.5156 5.4922,-8.2852 5.4922,-13.258 v -112.5 c 0,-4.9727 -1.9766,-9.7422 -5.4922,-13.258 -3.5156,-3.5156 -8.2852,-5.4922 -13.258,-5.4922 h -825 c -4.9727,0 -9.7422,1.9766 -13.258,5.4922 -3.5156,3.5156 -5.4922,8.2852 -5.4922,13.258 v 112.5 c 0,4.9727 1.9766,9.7422 5.4922,13.258 3.5156,3.5156 8.2852,5.4922 13.258,5.4922 h 36.75 l -36.75,955.5 c -0.16016,5.0898 1.7383,10.031 5.2656,13.699 3.5312,3.6719 8.3906,5.7617 13.484,5.8008 h 168.75 c 4.1875,0 8.2539,-1.4062 11.551,-3.9922 3.293,-2.582 5.6328,-6.1914 6.6367,-10.258 l 33.938,-135.75 h 345.75 l 33.938,135.75 c 1.0039,4.0664 3.3438,7.6758 6.6367,10.258 3.2969,2.5859 7.3633,3.9883 11.551,3.9922 h 168.75 c 5.0938,-0.039 9.9531,-2.1289 13.484,-5.8008 3.5273,-3.668 5.4258,-8.6094 5.2656,-13.699 l -2.8125,-74.25 h 115.31 c 5.5898,-0.012 10.887,-2.5156 14.441,-6.832 3.5547,-4.3125 4.9961,-9.9922 3.9336,-15.48 z M 150,150 V 75 h 787.5 v 75 z m 581.25,37.5 v 93.75 h -375 V 187.5 Z M 783.375,1125 749.437,989.25 c -1.0039,-4.0664 -3.3438,-7.6758 -6.6367,-10.258 -3.2969,-2.5859 -7.3633,-3.9883 -11.551,-3.9922 h -375 c -4.1875,0.004 -8.2539,1.4062 -11.551,3.9922 -3.293,2.582 -5.6328,6.1914 -6.6367,10.258 L 304.1236,1125 h -134.62 l 36,-937.5 h 113.25 V 300 c 0,4.9727 1.9766,9.7422 5.4922,13.258 3.5156,3.5156 8.2852,5.4922 13.258,5.4922 h 412.5 c 4.9727,0 9.7422,-1.9766 13.258,-5.4922 3.5156,-3.5156 5.4922,-8.2852 5.4922,-13.258 V 187.5 h 113.25 l 36,937.5 z m 168.56,-93.75 -23.625,-615.19 117.75,615.19 z"
           id="path296"
           style="fill:#000000" /></g><text
         xml:space="preserve"
         style="font-style:normal;font-variant:normal;font-weight:bold;font-stretch:normal;font-size:8.3104px;line-height:1.25;font-family:sans-serif;-inkscape-font-specification:'sans-serif, Bold';font-variant-ligatures:normal;font-variant-caps:normal;font-variant-numeric:normal;font-variant-east-asian:normal;fill:#4d4d4d;fill-opacity:1;stroke:none;stroke-width:0.12985"
         x="49.660759"
         y="170.35158"
         id="text11145"
         transform="rotate(-0.81868929)"><tspan
           sodipodi:role="line"
           id="tspan11143"
           style="font-style:normal;font-variant:normal;font-weight:bold;font-stretch:normal;font-size:8.3104px;font-family:sans-serif;-inkscape-font-specification:'sans-serif, Bold';font-variant-ligatures:normal;font-variant-caps:normal;font-variant-numeric:normal;font-variant-east-asian:normal;fill:#4d4d4d;stroke-width:0.12985"
           x="49.660759"
           y="170.35158">cleanup</tspan></text></g><text
       xml:space="preserve"
       style="font-style:normal;font-variant:normal;font-weight:bold;font-stretch:normal;font-size:14.3169px;line-height:1.25;font-family:sans-serif;-inkscape-font-specification:'sans-serif, Bold';font-variant-ligatures:normal;font-variant-caps:normal;font-variant-numeric:normal;font-variant-east-asian:normal;fill:#4d4d4d;fill-opacity:1;stroke:none;stroke-width:0.357925"
       x="-14.299994"
       y="244.67221"
       id="text11199"
       transform="rotate(-30.102252)"><tspan
         sodipodi:role="line"
         id="tspan11197"
         style="font-style:normal;font-variant:normal;font-weight:bold;font-stretch:normal;font-size:14.3169px;font-family:sans-serif;-inkscape-font-specification:'sans-serif, Bold';font-variant-ligatures:normal;font-variant-caps:normal;font-variant-numeric:normal;font-variant-east-asian:normal;fill:#4d4d4d;stroke-width:0.357925"
         x="-14.299994"
         y="244.67221">d. r. congo</tspan></text></g></svg>
